<svg width="87" height="87" xmlns="http://www.w3.org/2000/svg" xmlns:xlink="http://www.w3.org/1999/xlink" xml:space="preserve" overflow="hidden"><g transform="translate(-826 -296)"><path d="M869.481 305.062C850.472 305.062 835.061 320.472 835.061 339.481 835.06 358.49 850.47 373.901 869.479 373.901 888.488 373.902 903.899 358.492 903.899 339.483 903.899 339.482 903.899 339.48 903.899 339.479 903.907 320.479 888.51 305.07 869.51 305.062 869.5 305.062 869.491 305.062 869.481 305.062ZM873.043 358.056C872.659 358.953 871.945 359.667 871.049 360.05 870.588 360.246 870.092 360.346 869.591 360.344 868.59 360.346 867.63 359.95 866.922 359.244 866.58 358.902 866.306 358.498 866.116 358.053 865.919 357.591 865.819 357.094 865.822 356.593 865.819 355.592 866.215 354.631 866.922 353.923 868.387 352.454 870.766 352.451 872.235 353.916 872.238 353.918 872.24 353.921 872.242 353.923L872.242 353.923C872.586 354.268 872.86 354.676 873.048 355.126 873.244 355.59 873.344 356.089 873.343 356.593 873.344 357.095 873.242 357.593 873.043 358.055ZM876.242 342.143C873.767 343.635 872.238 346.301 872.2 349.191L866.762 349.191C866.795 344.43 869.285 340.024 873.347 337.54 876.752 335.405 877.782 330.914 875.648 327.509 873.513 324.103 869.022 323.073 865.617 325.208 863.493 326.54 862.203 328.87 862.205 331.377L856.767 331.377C856.765 324.355 862.455 318.66 869.477 318.658 876.499 318.655 882.194 324.346 882.197 331.368 882.198 335.744 879.949 339.814 876.242 342.141Z" fill="#353535"/></g></svg>