<svg width="96" height="96" xmlns="http://www.w3.org/2000/svg" xmlns:xlink="http://www.w3.org/1999/xlink" xml:space="preserve" overflow="hidden"><g transform="translate(-820 -413)"><path d="M884 443C884 451.837 876.837 459 868 459 859.163 459 852 451.837 852 443 852 434.163 859.163 427 868 427 876.837 427 884 434.163 884 443Z" fill="#353535"/><path d="M900 495 900 479C900 476.6 898.8 474.2 896.8 472.6 892.4 469 886.8 466.6 881.2 465 877.2 463.8 872.8 463 868 463 863.6 463 859.2 463.8 854.8 465 849.2 466.6 843.6 469.4 839.2 472.6 837.2 474.2 836 476.6 836 479L836 495 900 495Z" fill="#353535"/></g></svg>