<svg width="90" height="89" xmlns="http://www.w3.org/2000/svg" xmlns:xlink="http://www.w3.org/1999/xlink" xml:space="preserve" overflow="hidden"><g transform="translate(-985 -296)"><path d="M44.5 18.5417C45.5198 18.5417 46.3542 19.376 46.3542 20.3958 46.3542 21.4156 45.5198 22.25 44.5 22.25 43.4802 22.25 42.6458 21.4156 42.6458 20.3958 42.6458 19.376 43.4802 18.5417 44.5 18.5417ZM55.625 74.1667C55.625 73.1469 54.7906 72.3125 53.7708 72.3125L47.2812 72.3125 47.2812 25.2167C48.1156 24.7531 48.8573 24.0115 49.3208 23.1771L67.1208 23.1771 61.9292 50.0625 65.7302 50.0625 69.8094 28.925 75.001 50.0625 78.8021 50.0625 72.0344 23.1771 73.2396 23.1771C74.8156 23.1771 76.0208 21.9719 76.0208 20.3958 76.0208 18.8198 74.8156 17.6146 73.2396 17.6146L49.3208 17.6146C48.8573 16.7802 48.1156 16.0385 47.2812 15.575L47.2812 10.1979C47.2812 8.62187 46.076 7.41667 44.5 7.41667 42.924 7.41667 41.7188 8.62187 41.7188 10.1979L41.7188 15.575C40.8844 16.0385 40.1427 16.7802 39.6792 17.6146L15.7604 17.6146C14.1844 17.6146 12.9792 18.8198 12.9792 20.3958 12.9792 21.6937 13.9062 22.899 15.2042 23.0844L9.91979 50.0625 13.7208 50.0625 17.8 28.925 23.0844 50.0625 26.8854 50.0625 20.1177 23.1771 39.5865 23.1771C40.05 24.0115 40.7917 24.7531 41.626 25.2167L41.626 72.3125 35.1365 72.3125C34.1167 72.3125 33.2823 73.1469 33.2823 74.1667L33.2823 76.0208 22.25 76.0208 22.25 81.5833 66.75 81.5833 66.75 76.0208 55.625 76.0208 55.625 74.1667Z" fill="#353535" transform="matrix(1.01124 0 0 1 985 296)"/><path d="M29.6667 52.8438 7.41667 52.8438C7.41667 55.9031 12.4229 58.4062 18.5417 58.4062 24.6604 58.4062 29.6667 55.9031 29.6667 52.8438Z" fill="#353535" transform="matrix(1.01124 0 0 1 985 296)"/><path d="M59.3333 52.8438C59.3333 55.9031 64.3396 58.4062 70.4583 58.4062 76.5771 58.4062 81.5833 55.9031 81.5833 52.8438L59.3333 52.8438Z" fill="#353535" transform="matrix(1.01124 0 0 1 985 296)"/></g></svg>