<svg width="96" height="96" xmlns="http://www.w3.org/2000/svg" xmlns:xlink="http://www.w3.org/1999/xlink" xml:space="preserve" overflow="hidden"><g transform="translate(-812 -132)"><path d="M888 176C888 178.2 886.2 180 884 180 881.8 180 880 178.2 880 176L880 172 878 152 886 152 888 172 888 176ZM872 176C872 178.2 870.2 180 868 180 865.8 180 864 178.2 864 176L864 172 863 152 871 152 872 172 872 176ZM856 172 856 176C856 178.2 854.2 180 852 180 849.8 180 848 178.2 848 176L848 172 849 152 857 152 856 172ZM852 204 836 204 836 188 852 188 852 204ZM832 176 832 172 834 152 842 152 840 172 840 176C840 178.2 838.2 180 836 180 833.8 180 832 178.2 832 176ZM892 146 828 146 824 172 824 176C824 178.2 825.8 180 828 180L828 214 862 214 862 188 884 188 884 214 892 214 892 180C894.2 180 896 178.2 896 176L896 172 892 146Z" fill="#353535"/></g></svg>